{
    "accessors": [
        {
            "bufferView": 0,
            "byteOffset": 0,
            "componentType": 5126,
            "count": 2760,
            "max": [
                0.5,
                0.5,
                0.3742956519126892
            ],
            "min": [
                -0.5,
                -0.5,
                3.6447821102907643e-17
            ],
            "name": "accessor_buffer_uvquickshade1_POSITION_0",
            "type": "VEC3"
        },
        {
            "bufferView": 4,
            "byteOffset": 0,
            "componentType": 5123,
            "count": 6900,
            "max": [
                2759
            ],
            "min": [
                0
            ],
            "name": "accessor_buffer_uvquickshade1_0",
            "type": "SCALAR"
        },
        {
            "bufferView": 2,
            "byteOffset": 0,
            "componentType": 5126,
            "count": 2760,
            "max": [
                1.0789480209350586,
                1.0
            ],
            "min": [
                -0.054430246353149414,
                -0.060125112533569336
            ],
            "name": "accessor_buffer_uvquickshade1_TEXCOORD_0_0",
            "type": "VEC2"
        },
        {
            "bufferView": 3,
            "byteOffset": 0,
            "componentType": 5126,
            "count": 2760,
            "max": [
                1.0,
                1.0,
                1.0
            ],
            "min": [
                1.0,
                1.0,
                1.0
            ],
            "name": "accessor_buffer_uvquickshade1_COLOR_0_0",
            "type": "VEC3"
        },
        {
            "bufferView": 1,
            "byteOffset": 0,
            "componentType": 5126,
            "count": 2760,
            "max": [
                0.9898373484611511,
                1.0,
                0.999969482421875
            ],
            "min": [
                -0.8804284930229187,
                -1.0,
                -0.999969482421875
            ],
            "name": "accessor_buffer_uvquickshade1_NORMAL_0",
            "type": "VEC3"
        }
    ],
    "asset": {
        "copyright": "",
        "generator": "blendergltf v1.2.0",
        "version": "2.0"
    },
    "bufferViews": [
        {
            "buffer": 0,
            "byteLength": 33120,
            "byteOffset": 0,
            "byteStride": 12,
            "name": "bufferView_buffer_uvquickshade1_POSITION_0",
            "target": 34962
        },
        {
            "buffer": 0,
            "byteLength": 33120,
            "byteOffset": 33120,
            "byteStride": 12,
            "name": "bufferView_buffer_uvquickshade1_NORMAL_0",
            "target": 34962
        },
        {
            "buffer": 0,
            "byteLength": 22080,
            "byteOffset": 66240,
            "byteStride": 8,
            "name": "bufferView_buffer_uvquickshade1_TEXCOORD_0_0",
            "target": 34962
        },
        {
            "buffer": 0,
            "byteLength": 33120,
            "byteOffset": 88320,
            "byteStride": 12,
            "name": "bufferView_buffer_uvquickshade1_COLOR_0_0",
            "target": 34962
        },
        {
            "buffer": 0,
            "byteLength": 13804,
            "byteOffset": 121440,
            "name": "bufferView_buffer_uvquickshade1_0",
            "target": 34963
        }
    ],
    "buffers": [
        {
            "byteLength": 135244,
            "name": "buffer_qr_maze3",
            "uri": "data:application/octet-stream;base64,"
        }
    ],
    "cameras": [
        {
            "name": "Camera",
            "perspective": {
                "aspectRatio": 1.703595982340029,
                "yfov": 0.5033799409866333,
                "zfar": 100.0,
                "znear": 0.10000000149011612
            },
            "type": "perspective"
        }
    ],
    "images": [
        {
            "name": "texture_material_texture1",
            "uri": "texture_material_baseColor.jpg"
        }
    ],
    "materials": [
        {
            "alphaMode": "OPAQUE",
            "doubleSided": false,
            "emissiveFactor": [
                0.0,
                0.0,
                0.0
            ],
            "name": "texture_material",
            "pbrMetallicRoughness": {
                "baseColorFactor": [
                    0.800000011920929,
                    0.800000011920929,
                    0.800000011920929,
                    1.0
                ],
                "baseColorTexture": {
                    "index": 0,
                    "texCoord": 0
                },
                "metallicFactor": 0.0,
                "roughnessFactor": 1.0
            }
        }
    ],
    "meshes": [
        {
            "name": "uvquickshade1",
            "primitives": [
                {
                    "attributes": {
                        "COLOR_0": 3,
                        "NORMAL": 4,
                        "POSITION": 0,
                        "TEXCOORD_0": 2
                    },
                    "indices": 1,
                    "material": 0,
                    "mode": 4
                }
            ]
        }
    ],
    "nodes": [
        {
            "camera": 0,
            "name": "Camera",
            "rotation": [
                -0.09062843769788742,
                -0.8937962651252747,
                -0.2099730223417282,
                0.38578000664711
            ],
            "scale": [
                1.0,
                1.0,
                1.0
            ],
            "translation": [
                -7.481131553649902,
                5.34366512298584,
                -6.5076398849487305
            ]
        },
        {
            "name": "Lamp",
            "rotation": [
                -0.34203386306762695,
                -0.5232755541801453,
                -0.2841663062572479,
                0.7269423007965088
            ],
            "scale": [
                1.0,
                1.0,
                0.9999999403953552
            ],
            "translation": [
                -4.076245307922363,
                5.903861999511719,
                1.0054539442062378
            ]
        },
        {
            "mesh": 0,
            "name": "uvquickshade1",
            "rotation": [
                -0.7071068286895752,
                0.0,
                0.0,
                0.7071067094802856
            ],
            "scale": [
                1.0,
                1.0,
                1.0
            ],
            "translation": [
                0.0,
                0.0,
                0.0
            ]
        }
    ],
    "samplers": [
        {
            "magFilter": 9729,
            "minFilter": 9987,
            "name": "texture_material_texture1",
            "wrapS": 10497,
            "wrapT": 10497
        }
    ],
    "scene": 0,
    "scenes": [
        {
            "extras": {
                "active_camera": 0,
                "background_color": [
                    0.05087608844041824,
                    0.05087608844041824,
                    0.05087608844041824
                ],
                "frames_per_second": 25
            },
            "name": "Scene",
            "nodes": [
                2,
                1,
                0
            ]
        }
    ],
    "textures": [
        {
            "name": "texture_material_texture1",
            "sampler": 0,
            "source": 0
        }
    ]
}
