{"accessors":[{"name":"Node-Mesh_positions","componentType":5126,"count":1380,"min":[-0.5,3.6447821102907643e-17,-0.5],"max":[0.5,9.768016373216604e-17,0.5],"type":"VEC3","bufferView":0,"byteOffset":0},{"name":"Node-Mesh_texcoords","componentType":5126,"count":1380,"min":[0,1],"max":[0,1],"type":"VEC2","bufferView":1,"byteOffset":0},{"name":"Node-Mesh_0_indices","componentType":5123,"count":1380,"min":[0],"max":[1379],"type":"SCALAR","bufferView":2,"byteOffset":0},{"name":"extrudeFront_1_positions","componentType":5126,"count":1380,"min":[-0.5,0.04731017351150513,-0.5],"max":[0.5,0.3742956519126892,0.5],"type":"VEC3","bufferView":0,"byteOffset":16560},{"name":"extrudeFront_1_texcoords","componentType":5126,"count":1380,"min":[0,1],"max":[0,1],"type":"VEC2","bufferView":1,"byteOffset":11040},{"name":"extrudeFront_1_0_indices","componentType":5123,"count":1380,"min":[0],"max":[1379],"type":"SCALAR","bufferView":2,"byteOffset":2760},{"name":"extrudeSide_1_positions","componentType":5126,"count":4140,"min":[-0.5,3.6447821102907643e-17,-0.5],"max":[0.5,0.3742956519126892,0.5],"type":"VEC3","bufferView":0,"byteOffset":33120},{"name":"extrudeSide_1_texcoords","componentType":5126,"count":4140,"min":[-0.054430246353149414,-0.06012510880827904],"max":[1.0789480209350586,0.9617004990577698],"type":"VEC2","bufferView":1,"byteOffset":22080},{"name":"extrudeSide_1_0_indices","componentType":5123,"count":4140,"min":[0],"max":[4139],"type":"SCALAR","bufferView":2,"byteOffset":5520}],"asset":{"generator":"obj2gltf","version":"2.0"},"buffers":[{"name":"input","byteLength":151800,"uri":"data:application/octet-stream;base64,"}],"bufferViews":[{"name":"bufferView_0","buffer":0,"byteLength":82800,"byteOffset":0,"byteStride":12,"target":34962},{"name":"bufferView_1","buffer":0,"byteLength":55200,"byteOffset":82800,"byteStride":8,"target":34962},{"name":"bufferView_2","buffer":0,"byteLength":13800,"byteOffset":138000,"target":34963}],"materials":[{"name":"default","pbrMetallicRoughness":{"baseColorFactor":[0.5,0.5,0.5,1],"metallicFactor":0,"roughnessFactor":1},"emissiveFactor":[0,0,0],"alphaMode":"OPAQUE","doubleSided":false}],"meshes":[{"name":"Node-Mesh","primitives":[{"attributes":{"POSITION":0,"TEXCOORD_0":1},"indices":2,"material":0,"mode":4}]},{"name":"extrudeFront_1","primitives":[{"attributes":{"POSITION":3,"TEXCOORD_0":4},"indices":5,"material":0,"mode":4}]},{"name":"extrudeSide_1","primitives":[{"attributes":{"POSITION":6,"TEXCOORD_0":7},"indices":8,"material":0,"mode":4}]}],"nodes":[{"name":"Node","mesh":0},{"name":"extrudeFront","mesh":1},{"name":"extrudeSide","mesh":2}],"scene":0,"scenes":[{"nodes":[0,1,2]}]}
